<?xml version="1.0" encoding="UTF-8" standalone="no"?>
<!DOCTYPE svg PUBLIC "-//W3C//DTD SVG 1.1//EN" "http://www.w3.org/Graphics/SVG/1.1/DTD/svg11.dtd">
<svg width="100%" height="100%" viewBox="0 0 1500 400" version="1.1" xmlns="http://www.w3.org/2000/svg" xmlns:xlink="http://www.w3.org/1999/xlink" xml:space="preserve" xmlns:serif="http://www.serif.com/" style="fill-rule:evenodd;clip-rule:evenodd;stroke-linejoin:round;stroke-miterlimit:1.41421;">
    <g id="type" transform="matrix(1.05371,0,0,1.05371,41.5864,43.4897)">
        <path d="M483,96L443,96L443,236.5L399,236.5L399,96L359,96L359,60L483,60L483,96Z"/>
        <path d="M829,96L789,96L789,236.5L745,236.5L745,96L705,96L705,60L829,60L829,96Z"/>
        <path d="M1086,171L1086,236.5L1042,236.5L1042,61L1086,61L1086,61.012C1095.15,61.012 1102.7,61.009 1104.91,61C1163.17,60.766 1170.48,98.48 1170.31,115.132C1169.83,163.869 1137.05,170.989 1137,171L1136.93,171L1175,236.5L1123,236.5L1086,171ZM1086,145.035C1090.98,145.052 1097.14,145.067 1101.73,145.06C1114.88,145.04 1127,138.423 1127,120C1127,102.103 1114.58,95.854 1099.81,95.969C1094.75,96.008 1089.64,96.014 1086,96.011L1086,145.035Z"/>
        <path d="M1231.67,159.645L1174,61L1226,61L1253.67,108.329L1281.34,61L1333.34,61L1275.67,159.645L1275.67,236.5L1231.67,236.5L1231.67,159.645Z"/>
        <path d="M925.5,57C976.552,57 1018,98 1018,148.5C1018,199 976.552,240 925.5,240C874.448,240 833,199 833,148.5C833,98 874.448,57 925.5,57ZM925.5,96.5C953.096,96.5 975.5,119.8 975.5,148.5C975.5,177.2 953.096,200.5 925.5,200.5C897.904,200.5 875.5,177.2 875.5,148.5C875.5,119.8 897.904,96.5 925.5,96.5Z"/>
        <g transform="matrix(8.93182e-17,1.45868,-0.956522,5.85701e-17,601.391,-463.665)">
            <rect x="359" y="60" width="121" height="46"/>
        </g>
        <path d="M649,112L691,112C691,112 690.156,58.917 630,58C584.53,57.307 572.879,91.744 572,95C558.718,144.191 600.4,159.324 606,162C621.222,169.273 642,175.167 646,182C650,188.833 646.613,203.168 629,203C606.625,202.787 610,183 610,183L568,183C568,183 562.73,237.561 627,240C659.303,241.226 678.833,225.333 687,210C700.355,184.926 688.169,157.878 676,148C662.689,137.195 634.193,128.653 622,123C604.864,115.055 612.048,94.992 630.919,95.089C649.79,95.186 649,112 649,112"/>
    </g>
    <g id="icon" transform="matrix(1.04895,0,0,1.04895,41.9297,44.7552)">
        <g transform="matrix(1.00704,0,0,1.00704,-13.169,30.1761)">
            <circle cx="166" cy="117" r="142" style="fill:rgb(234,82,32);"/>
        </g>
        <g>
            <g transform="matrix(0.986042,0,0,0.986042,0.428741,-1.92393)">
                <circle cx="93" cy="103" r="25" style="fill:white;"/>
            </g>
            <g transform="matrix(0.986042,0,0,0.986042,62.2981,-1.92393)">
                <circle cx="93" cy="103" r="25" style="fill:white;"/>
            </g>
            <g transform="matrix(0.986042,0,0,0.986042,62.2981,59.9454)">
                <circle cx="93" cy="103" r="25" style="fill:white;"/>
            </g>
            <g transform="matrix(0.986042,0,0,0.986042,62.2981,121.815)">
                <circle cx="93" cy="103" r="25" style="fill:white;"/>
            </g>
            <g transform="matrix(0.986042,0,0,0.986042,124.167,-1.92393)">
                <circle cx="93" cy="103" r="25" style="fill:white;"/>
            </g>
        </g>
    </g>
</svg>
